{
	"asset":{
		"generator":"Khronos glTF Blender I/O v4.4.56",
		"version":"2.0"
	},
	"scene":0,
	"scenes":[
		{
			"name":"Scene",
			"nodes":[
				9
			]
		}
	],
	"nodes":[
		{
			"name":"\u30dc\u30fc\u30f3.005",
			"rotation":[
				3.1103859488013086e-09,
				-4.700219236042358e-08,
				0.0008357343031093478,
				0.9999996423721313
			],
			"scale":[
				1.0000001192092896,
				0.9999999403953552,
				1.0000001192092896
			],
			"translation":[
				1.5751388104945363e-07,
				0.6597634553909302,
				-2.893685291383008e-10
			]
		},
		{
			"children":[
				0
			],
			"name":"\u30dc\u30fc\u30f3.004",
			"rotation":[
				4.265626074584361e-08,
				6.577676625596496e-09,
				0.03061557188630104,
				0.9995312690734863
			],
			"scale":[
				0.9999999403953552,
				1,
				0.9999999403953552
			],
			"translation":[
				5.829249971611716e-08,
				1.0184862613677979,
				-1.8507104182496903e-10
			]
		},
		{
			"children":[
				1
			],
			"name":"\u30dc\u30fc\u30f3.003",
			"rotation":[
				-1.1880621997306662e-07,
				-8.688816777180364e-09,
				0.36385247111320496,
				0.9314566254615784
			],
			"scale":[
				1,
				0.9999999403953552,
				0.9999999403953552
			],
			"translation":[
				-3.728535702407498e-08,
				0.4297966957092285,
				-2.2023982637620065e-10
			]
		},
		{
			"children":[
				2
			],
			"name":"\u30dc\u30fc\u30f3.002",
			"rotation":[
				0.0812295600771904,
				0.2067403942346573,
				0.35655635595321655,
				0.9074842929840088
			],
			"scale":[
				1.0000001192092896,
				1.0000001192092896,
				1
			],
			"translation":[
				1.2571399565786123e-07,
				2.767463445663452,
				-6.059417501091957e-08
			]
		},
		{
			"name":"\u30dc\u30fc\u30f3.001",
			"rotation":[
				-0.6275164484977722,
				0.14462542533874512,
				0.07606388628482819,
				0.7612627148628235
			],
			"translation":[
				1.2571399565786123e-07,
				2.767463445663452,
				-6.059417501091957e-08
			]
		},
		{
			"name":"\u30dc\u30fc\u30f3.006",
			"rotation":[
				0.5211330056190491,
				0.021332301199436188,
				-0.33768677711486816,
				0.7835386991500854
			],
			"scale":[
				1.0000001192092896,
				1,
				1.0000001192092896
			],
			"translation":[
				1.2571399565786123e-07,
				2.767463445663452,
				-6.059417501091957e-08
			]
		},
		{
			"children":[
				3,
				4,
				5
			],
			"name":"\u30dc\u30fc\u30f3",
			"rotation":[
				-0.1644902229309082,
				-0.14927411079406738,
				-0.7220282554626465,
				0.6552369594573975
			],
			"scale":[
				1,
				1,
				0.9999999403953552
			],
			"translation":[
				-1.990430474281311,
				-1.0132709741592407,
				-0.001179322600364685
			]
		},
		{
			"name":"neutral_bone",
			"rotation":[
				-0.7071067690849304,
				0,
				0,
				0.7071067690849304
			]
		},
		{
			"mesh":0,
			"name":"tripo_node_1f5ea703-a20c-43c4-bb1e-d1dde0206eb7",
			"skin":0
		},
		{
			"children":[
				8,
				6,
				7
			],
			"name":"\u30a2\u30fc\u30de\u30c1\u30e5\u30a2",
			"rotation":[
				0,
				-0.7074944376945496,
				0,
				0.7067189812660217
			],
			"scale":[
				0.22317206859588623,
				0.22317206859588623,
				0.22317206859588623
			]
		}
	],
	"animations":[
		{
			"channels":[
				{
					"sampler":0,
					"target":{
						"node":6,
						"path":"translation"
					}
				},
				{
					"sampler":1,
					"target":{
						"node":6,
						"path":"rotation"
					}
				},
				{
					"sampler":2,
					"target":{
						"node":6,
						"path":"scale"
					}
				},
				{
					"sampler":3,
					"target":{
						"node":3,
						"path":"translation"
					}
				},
				{
					"sampler":4,
					"target":{
						"node":3,
						"path":"rotation"
					}
				},
				{
					"sampler":5,
					"target":{
						"node":3,
						"path":"scale"
					}
				},
				{
					"sampler":6,
					"target":{
						"node":2,
						"path":"translation"
					}
				},
				{
					"sampler":7,
					"target":{
						"node":2,
						"path":"rotation"
					}
				},
				{
					"sampler":8,
					"target":{
						"node":2,
						"path":"scale"
					}
				},
				{
					"sampler":9,
					"target":{
						"node":1,
						"path":"translation"
					}
				},
				{
					"sampler":10,
					"target":{
						"node":1,
						"path":"rotation"
					}
				},
				{
					"sampler":11,
					"target":{
						"node":1,
						"path":"scale"
					}
				},
				{
					"sampler":12,
					"target":{
						"node":0,
						"path":"translation"
					}
				},
				{
					"sampler":13,
					"target":{
						"node":0,
						"path":"rotation"
					}
				},
				{
					"sampler":14,
					"target":{
						"node":0,
						"path":"scale"
					}
				},
				{
					"sampler":15,
					"target":{
						"node":4,
						"path":"translation"
					}
				},
				{
					"sampler":16,
					"target":{
						"node":4,
						"path":"rotation"
					}
				},
				{
					"sampler":17,
					"target":{
						"node":4,
						"path":"scale"
					}
				},
				{
					"sampler":18,
					"target":{
						"node":5,
						"path":"translation"
					}
				},
				{
					"sampler":19,
					"target":{
						"node":5,
						"path":"rotation"
					}
				},
				{
					"sampler":20,
					"target":{
						"node":5,
						"path":"scale"
					}
				}
			],
			"name":"\u30a2\u30fc\u30de\u30c1\u30e5\u30a2\u30a2\u30af\u30b7\u30e7\u30f3",
			"samplers":[
				{
					"input":7,
					"interpolation":"STEP",
					"output":8
				},
				{
					"input":7,
					"interpolation":"STEP",
					"output":9
				},
				{
					"input":7,
					"interpolation":"STEP",
					"output":10
				},
				{
					"input":7,
					"interpolation":"STEP",
					"output":11
				},
				{
					"input":12,
					"interpolation":"LINEAR",
					"output":13
				},
				{
					"input":7,
					"interpolation":"STEP",
					"output":14
				},
				{
					"input":7,
					"interpolation":"STEP",
					"output":15
				},
				{
					"input":7,
					"interpolation":"STEP",
					"output":16
				},
				{
					"input":7,
					"interpolation":"STEP",
					"output":17
				},
				{
					"input":7,
					"interpolation":"STEP",
					"output":18
				},
				{
					"input":7,
					"interpolation":"STEP",
					"output":19
				},
				{
					"input":7,
					"interpolation":"STEP",
					"output":20
				},
				{
					"input":7,
					"interpolation":"STEP",
					"output":21
				},
				{
					"input":12,
					"interpolation":"LINEAR",
					"output":22
				},
				{
					"input":7,
					"interpolation":"STEP",
					"output":23
				},
				{
					"input":7,
					"interpolation":"STEP",
					"output":24
				},
				{
					"input":12,
					"interpolation":"LINEAR",
					"output":25
				},
				{
					"input":7,
					"interpolation":"STEP",
					"output":26
				},
				{
					"input":7,
					"interpolation":"STEP",
					"output":27
				},
				{
					"input":12,
					"interpolation":"LINEAR",
					"output":28
				},
				{
					"input":7,
					"interpolation":"STEP",
					"output":29
				}
			]
		}
	],
	"materials":[
		{
			"name":"tripo_mat_1f5ea703-a20c-43c4-bb1e-d1dde0206eb7.001",
			"pbrMetallicRoughness":{
				"baseColorTexture":{
					"index":0
				},
				"metallicFactor":0,
				"roughnessFactor":0.8999999761581421
			}
		}
	],
	"meshes":[
		{
			"name":"tripo_mesh_1f5ea703-a20c-43c4-bb1e-d1dde0206eb7.001",
			"primitives":[
				{
					"attributes":{
						"POSITION":0,
						"NORMAL":1,
						"TEXCOORD_0":2,
						"JOINTS_0":3,
						"WEIGHTS_0":4
					},
					"indices":5,
					"material":0
				}
			]
		}
	],
	"textures":[
		{
			"sampler":0,
			"source":0
		}
	],
	"images":[
		{
			"mimeType":"image/jpeg",
			"name":"basecolor",
			"uri":"basecolor.jpg"
		}
	],
	"skins":[
		{
			"inverseBindMatrices":6,
			"joints":[
				6,
				3,
				2,
				1,
				0,
				4,
				5,
				7
			],
			"name":"\u30a2\u30fc\u30de\u30c1\u30e5\u30a2"
		}
	],
	"accessors":[
		{
			"bufferView":0,
			"componentType":5126,
			"count":2916,
			"max":[
				0.37706464529037476,
				0.35595703125,
				0.49642637372016907
			],
			"min":[
				-0.3790692687034607,
				-0.35833740234375,
				-0.4970976412296295
			],
			"type":"VEC3"
		},
		{
			"bufferView":1,
			"componentType":5126,
			"count":2916,
			"type":"VEC3"
		},
		{
			"bufferView":2,
			"componentType":5126,
			"count":2916,
			"type":"VEC2"
		},
		{
			"bufferView":3,
			"componentType":5121,
			"count":2916,
			"type":"VEC4"
		},
		{
			"bufferView":4,
			"componentType":5126,
			"count":2916,
			"type":"VEC4"
		},
		{
			"bufferView":5,
			"componentType":5123,
			"count":2916,
			"type":"SCALAR"
		},
		{
			"bufferView":6,
			"componentType":5126,
			"count":8,
			"type":"MAT4"
		},
		{
			"bufferView":7,
			"componentType":5126,
			"count":2,
			"max":[
				1.6666666666666667
			],
			"min":[
				0
			],
			"type":"SCALAR"
		},
		{
			"bufferView":8,
			"componentType":5126,
			"count":2,
			"type":"VEC3"
		},
		{
			"bufferView":9,
			"componentType":5126,
			"count":2,
			"type":"VEC4"
		},
		{
			"bufferView":10,
			"componentType":5126,
			"count":2,
			"type":"VEC3"
		},
		{
			"bufferView":11,
			"componentType":5126,
			"count":2,
			"type":"VEC3"
		},
		{
			"bufferView":12,
			"componentType":5126,
			"count":41,
			"max":[
				1.6666666666666667
			],
			"min":[
				0
			],
			"type":"SCALAR"
		},
		{
			"bufferView":13,
			"componentType":5126,
			"count":41,
			"type":"VEC4"
		},
		{
			"bufferView":14,
			"componentType":5126,
			"count":2,
			"type":"VEC3"
		},
		{
			"bufferView":15,
			"componentType":5126,
			"count":2,
			"type":"VEC3"
		},
		{
			"bufferView":16,
			"componentType":5126,
			"count":2,
			"type":"VEC4"
		},
		{
			"bufferView":17,
			"componentType":5126,
			"count":2,
			"type":"VEC3"
		},
		{
			"bufferView":18,
			"componentType":5126,
			"count":2,
			"type":"VEC3"
		},
		{
			"bufferView":19,
			"componentType":5126,
			"count":2,
			"type":"VEC4"
		},
		{
			"bufferView":20,
			"componentType":5126,
			"count":2,
			"type":"VEC3"
		},
		{
			"bufferView":21,
			"componentType":5126,
			"count":2,
			"type":"VEC3"
		},
		{
			"bufferView":22,
			"componentType":5126,
			"count":41,
			"type":"VEC4"
		},
		{
			"bufferView":23,
			"componentType":5126,
			"count":2,
			"type":"VEC3"
		},
		{
			"bufferView":24,
			"componentType":5126,
			"count":2,
			"type":"VEC3"
		},
		{
			"bufferView":25,
			"componentType":5126,
			"count":41,
			"type":"VEC4"
		},
		{
			"bufferView":26,
			"componentType":5126,
			"count":2,
			"type":"VEC3"
		},
		{
			"bufferView":27,
			"componentType":5126,
			"count":2,
			"type":"VEC3"
		},
		{
			"bufferView":28,
			"componentType":5126,
			"count":41,
			"type":"VEC4"
		},
		{
			"bufferView":29,
			"componentType":5126,
			"count":2,
			"type":"VEC3"
		}
	],
	"bufferViews":[
		{
			"buffer":0,
			"byteLength":34992,
			"byteOffset":0,
			"target":34962
		},
		{
			"buffer":0,
			"byteLength":34992,
			"byteOffset":34992,
			"target":34962
		},
		{
			"buffer":0,
			"byteLength":23328,
			"byteOffset":69984,
			"target":34962
		},
		{
			"buffer":0,
			"byteLength":11664,
			"byteOffset":93312,
			"target":34962
		},
		{
			"buffer":0,
			"byteLength":46656,
			"byteOffset":104976,
			"target":34962
		},
		{
			"buffer":0,
			"byteLength":5832,
			"byteOffset":151632,
			"target":34963
		},
		{
			"buffer":0,
			"byteLength":512,
			"byteOffset":157464
		},
		{
			"buffer":0,
			"byteLength":8,
			"byteOffset":157976
		},
		{
			"buffer":0,
			"byteLength":24,
			"byteOffset":157984
		},
		{
			"buffer":0,
			"byteLength":32,
			"byteOffset":158008
		},
		{
			"buffer":0,
			"byteLength":24,
			"byteOffset":158040
		},
		{
			"buffer":0,
			"byteLength":24,
			"byteOffset":158064
		},
		{
			"buffer":0,
			"byteLength":164,
			"byteOffset":158088
		},
		{
			"buffer":0,
			"byteLength":656,
			"byteOffset":158252
		},
		{
			"buffer":0,
			"byteLength":24,
			"byteOffset":158908
		},
		{
			"buffer":0,
			"byteLength":24,
			"byteOffset":158932
		},
		{
			"buffer":0,
			"byteLength":32,
			"byteOffset":158956
		},
		{
			"buffer":0,
			"byteLength":24,
			"byteOffset":158988
		},
		{
			"buffer":0,
			"byteLength":24,
			"byteOffset":159012
		},
		{
			"buffer":0,
			"byteLength":32,
			"byteOffset":159036
		},
		{
			"buffer":0,
			"byteLength":24,
			"byteOffset":159068
		},
		{
			"buffer":0,
			"byteLength":24,
			"byteOffset":159092
		},
		{
			"buffer":0,
			"byteLength":656,
			"byteOffset":159116
		},
		{
			"buffer":0,
			"byteLength":24,
			"byteOffset":159772
		},
		{
			"buffer":0,
			"byteLength":24,
			"byteOffset":159796
		},
		{
			"buffer":0,
			"byteLength":656,
			"byteOffset":159820
		},
		{
			"buffer":0,
			"byteLength":24,
			"byteOffset":160476
		},
		{
			"buffer":0,
			"byteLength":24,
			"byteOffset":160500
		},
		{
			"buffer":0,
			"byteLength":656,
			"byteOffset":160524
		},
		{
			"buffer":0,
			"byteLength":24,
			"byteOffset":161180
		}
	],
	"samplers":[
		{
			"magFilter":9729,
			"minFilter":9987
		}
	],
	"buffers":[
		{
			"byteLength":161204,
			"uri":"azarasi_walk.bin"
		}
	]
}
