# Blender 4.4.1
# www.blender.org
mtllib canon.mtl
o Canon
v 0.324464 -0.261832 -0.667703
v -0.370928 -0.245672 -0.667703
v 0.324464 -0.261832 -0.373142
v -0.370928 -0.245672 -0.373142
v 0.370928 1.737629 -0.667703
v -0.324464 1.753788 -0.667703
v 0.370928 1.737629 -0.373142
v -0.324464 1.753788 -0.373142
v 1.814340 1.971599 -0.350143
v 2.007530 1.303386 -0.350143
v 1.814340 1.971599 0.350143
v 2.007530 1.303386 0.350143
v -1.025276 1.150624 -0.350143
v -0.832086 0.482411 -0.350143
v -1.025276 1.150624 0.350143
v -0.832086 0.482411 0.350143
v 0.324464 -0.261832 0.412218
v -0.370928 -0.245672 0.412218
v 0.324464 -0.261832 0.706778
v -0.370928 -0.245672 0.706778
v 0.370928 1.737629 0.412218
v -0.324464 1.753788 0.412218
v 0.370928 1.737629 0.706778
v -0.324464 1.753788 0.706778
vn 0.9997 -0.0232 -0.0000
vn -0.0000 -0.0000 1.0000
vn 0.0232 0.9997 -0.0000
vn -0.9997 0.0232 -0.0000
vn -0.0232 -0.9997 -0.0000
vn -0.0000 -0.0000 -1.0000
vn -0.2777 0.9607 -0.0000
vn -0.9607 -0.2777 -0.0000
vn 0.2777 -0.9607 -0.0000
vn 0.9607 0.2777 -0.0000
vt 0.999860 0.170358
vt 0.914751 0.255468
vt 0.914751 0.170358
vt 0.829642 0.340577
vt 0.829642 0.255468
vt 0.914751 0.000140
vt 0.829642 0.085249
vt 0.829642 0.000140
vt 0.829642 0.170358
vt 0.744532 0.255468
vt 0.744532 0.170358
vt 0.914751 0.085249
vt 0.652201 0.365403
vt 0.435172 0.703489
vt 0.343121 0.523303
vt 0.710353 0.878708
vt 0.401272 0.720808
vt 0.304268 0.000140
vt 0.362419 0.197645
vt 0.270368 0.017458
vt 0.309220 0.540621
vt 0.092191 0.878707
vt 0.000140 0.698521
vt 0.999860 0.511075
vt 0.914751 0.596184
vt 0.914751 0.511075
vt 0.829642 0.681293
vt 0.829642 0.596184
vt 0.914751 0.340856
vt 0.829642 0.425966
vt 0.829642 0.340856
vt 0.829642 0.511075
vt 0.744532 0.596184
vt 0.744532 0.511075
vt 0.914751 0.425966
vt 0.999860 0.255468
vt 0.914751 0.340577
vt 0.744253 0.545590
vt 0.744253 0.861389
vt 0.396320 0.180326
vt 0.999860 0.596184
vt 0.914751 0.681293
s 0
usemtl マテリアル
f 5/1/1 3/2/1 1/3/1
f 3/2/2 8/4/2 4/5/2
f 7/6/3 6/7/3 8/8/3
f 2/9/4 8/10/4 6/11/4
f 1/3/5 4/5/5 2/9/5
f 5/12/6 2/9/6 6/7/6
f 5/1/1 7/36/1 3/2/1
f 3/2/2 7/37/2 8/4/2
f 7/6/3 5/12/3 6/7/3
f 2/9/4 4/5/4 8/10/4
f 1/3/5 3/2/5 4/5/5
f 5/12/6 1/3/6 2/9/6
usemtl マテリアル.001
f 13/13/7 11/14/7 9/15/7
f 11/14/2 16/16/2 12/17/2
f 15/18/8 14/19/8 16/20/8
f 10/21/9 16/22/9 14/23/9
f 9/15/10 12/17/10 10/21/10
f 14/19/6 9/15/6 10/21/6
f 13/13/7 15/38/7 11/14/7
f 11/14/2 15/39/2 16/16/2
f 15/18/8 13/40/8 14/19/8
f 10/21/9 12/17/9 16/22/9
f 9/15/10 11/14/10 12/17/10
f 14/19/6 13/40/6 9/15/6
usemtl マテリアル.002
f 21/24/1 19/25/1 17/26/1
f 19/25/2 24/27/2 20/28/2
f 23/29/3 22/30/3 24/31/3
f 18/32/4 24/33/4 22/34/4
f 17/26/5 20/28/5 18/32/5
f 21/35/6 18/32/6 22/30/6
f 21/24/1 23/41/1 19/25/1
f 19/25/2 23/42/2 24/27/2
f 23/29/3 21/35/3 22/30/3
f 18/32/4 20/28/4 24/33/4
f 17/26/5 19/25/5 20/28/5
f 21/35/6 17/26/6 18/32/6
