{
	"asset":{
		"generator":"Khronos glTF Blender I/O v4.4.56",
		"version":"2.0"
	},
	"scene":0,
	"scenes":[
		{
			"name":"Scene",
			"nodes":[
				6
			]
		}
	],
	"nodes":[
		{
			"name":"\u30dc\u30fc\u30f3.001",
			"rotation":[
				-9.313225746154785e-10,
				-2.4874199922031437e-14,
				-2.9744472503253055e-16,
				1
			],
			"translation":[
				0,
				0.6090425252914429,
				9.313225746154785e-10
			]
		},
		{
			"children":[
				0
			],
			"name":"\u30dc\u30fc\u30f3",
			"rotation":[
				-0.7133751511573792,
				8.353978131481199e-08,
				-8.504095205807971e-08,
				0.7007823586463928
			]
		},
		{
			"name":"\u30dc\u30fc\u30f3.003",
			"rotation":[
				0.2782049775123596,
				-1.1450310921645723e-07,
				-7.517240163679162e-08,
				0.9605217576026917
			],
			"translation":[
				1.5000474392862868e-16,
				0.6488773822784424,
				0
			]
		},
		{
			"name":"\u30dc\u30fc\u30f3.004",
			"rotation":[
				-0.253682017326355,
				-1.1530961074868173e-07,
				6.854615008933251e-08,
				0.9672876596450806
			],
			"scale":[
				1,
				1.0000001192092896,
				1
			],
			"translation":[
				1.5000474392862868e-16,
				0.6488773822784424,
				0
			]
		},
		{
			"children":[
				2,
				3
			],
			"name":"\u30dc\u30fc\u30f3.002",
			"rotation":[
				5.3709598546447523e-08,
				0.7027823328971863,
				0.7114049792289734,
				5.305859218651676e-08
			],
			"scale":[
				1,
				1.0000003576278687,
				0.9999998807907104
			]
		},
		{
			"mesh":0,
			"name":"\u7acb\u65b9\u4f53",
			"skin":0
		},
		{
			"children":[
				5,
				1,
				4
			],
			"name":"\u30a2\u30fc\u30de\u30c1\u30e5\u30a2"
		}
	],
	"animations":[
		{
			"channels":[
				{
					"sampler":0,
					"target":{
						"node":1,
						"path":"translation"
					}
				},
				{
					"sampler":1,
					"target":{
						"node":1,
						"path":"rotation"
					}
				},
				{
					"sampler":2,
					"target":{
						"node":1,
						"path":"scale"
					}
				},
				{
					"sampler":3,
					"target":{
						"node":0,
						"path":"translation"
					}
				},
				{
					"sampler":4,
					"target":{
						"node":0,
						"path":"rotation"
					}
				},
				{
					"sampler":5,
					"target":{
						"node":0,
						"path":"scale"
					}
				},
				{
					"sampler":6,
					"target":{
						"node":4,
						"path":"translation"
					}
				},
				{
					"sampler":7,
					"target":{
						"node":4,
						"path":"rotation"
					}
				},
				{
					"sampler":8,
					"target":{
						"node":4,
						"path":"scale"
					}
				},
				{
					"sampler":9,
					"target":{
						"node":2,
						"path":"translation"
					}
				},
				{
					"sampler":10,
					"target":{
						"node":2,
						"path":"rotation"
					}
				},
				{
					"sampler":11,
					"target":{
						"node":2,
						"path":"scale"
					}
				},
				{
					"sampler":12,
					"target":{
						"node":3,
						"path":"translation"
					}
				},
				{
					"sampler":13,
					"target":{
						"node":3,
						"path":"rotation"
					}
				},
				{
					"sampler":14,
					"target":{
						"node":3,
						"path":"scale"
					}
				}
			],
			"name":"\u30a2\u30fc\u30de\u30c1\u30e5\u30a2\u30a2\u30af\u30b7\u30e7\u30f3",
			"samplers":[
				{
					"input":7,
					"interpolation":"STEP",
					"output":8
				},
				{
					"input":7,
					"interpolation":"STEP",
					"output":9
				},
				{
					"input":7,
					"interpolation":"STEP",
					"output":10
				},
				{
					"input":7,
					"interpolation":"STEP",
					"output":11
				},
				{
					"input":12,
					"interpolation":"LINEAR",
					"output":13
				},
				{
					"input":7,
					"interpolation":"STEP",
					"output":14
				},
				{
					"input":7,
					"interpolation":"STEP",
					"output":15
				},
				{
					"input":7,
					"interpolation":"STEP",
					"output":16
				},
				{
					"input":7,
					"interpolation":"STEP",
					"output":17
				},
				{
					"input":7,
					"interpolation":"STEP",
					"output":18
				},
				{
					"input":12,
					"interpolation":"LINEAR",
					"output":19
				},
				{
					"input":7,
					"interpolation":"STEP",
					"output":20
				},
				{
					"input":7,
					"interpolation":"STEP",
					"output":21
				},
				{
					"input":12,
					"interpolation":"LINEAR",
					"output":22
				},
				{
					"input":7,
					"interpolation":"STEP",
					"output":23
				}
			]
		}
	],
	"materials":[
		{
			"doubleSided":true,
			"name":"\u30de\u30c6\u30ea\u30a2\u30eb",
			"pbrMetallicRoughness":{
				"baseColorFactor":[
					0,
					0.0030883541330695152,
					0.8002276420593262,
					1
				],
				"metallicFactor":0,
				"roughnessFactor":0.5
			}
		}
	],
	"meshes":[
		{
			"name":"\u7acb\u65b9\u4f53",
			"primitives":[
				{
					"attributes":{
						"POSITION":0,
						"NORMAL":1,
						"TEXCOORD_0":2,
						"JOINTS_0":3,
						"WEIGHTS_0":4
					},
					"indices":5,
					"material":0
				}
			]
		}
	],
	"skins":[
		{
			"inverseBindMatrices":6,
			"joints":[
				1,
				0,
				4,
				2,
				3
			],
			"name":"\u30a2\u30fc\u30de\u30c1\u30e5\u30a2"
		}
	],
	"accessors":[
		{
			"bufferView":0,
			"componentType":5126,
			"count":196,
			"max":[
				0.34684115648269653,
				0.7915817499160767,
				1
			],
			"min":[
				-0.34684115648269653,
				-0.7931457757949829,
				-1.070717453956604
			],
			"type":"VEC3"
		},
		{
			"bufferView":1,
			"componentType":5126,
			"count":196,
			"type":"VEC3"
		},
		{
			"bufferView":2,
			"componentType":5126,
			"count":196,
			"type":"VEC2"
		},
		{
			"bufferView":3,
			"componentType":5121,
			"count":196,
			"type":"VEC4"
		},
		{
			"bufferView":4,
			"componentType":5126,
			"count":196,
			"type":"VEC4"
		},
		{
			"bufferView":5,
			"componentType":5123,
			"count":354,
			"type":"SCALAR"
		},
		{
			"bufferView":6,
			"componentType":5126,
			"count":5,
			"type":"MAT4"
		},
		{
			"bufferView":7,
			"componentType":5126,
			"count":2,
			"max":[
				1.6666666666666667
			],
			"min":[
				0
			],
			"type":"SCALAR"
		},
		{
			"bufferView":8,
			"componentType":5126,
			"count":2,
			"type":"VEC3"
		},
		{
			"bufferView":9,
			"componentType":5126,
			"count":2,
			"type":"VEC4"
		},
		{
			"bufferView":10,
			"componentType":5126,
			"count":2,
			"type":"VEC3"
		},
		{
			"bufferView":11,
			"componentType":5126,
			"count":2,
			"type":"VEC3"
		},
		{
			"bufferView":12,
			"componentType":5126,
			"count":41,
			"max":[
				1.6666666666666667
			],
			"min":[
				0
			],
			"type":"SCALAR"
		},
		{
			"bufferView":13,
			"componentType":5126,
			"count":41,
			"type":"VEC4"
		},
		{
			"bufferView":14,
			"componentType":5126,
			"count":2,
			"type":"VEC3"
		},
		{
			"bufferView":15,
			"componentType":5126,
			"count":2,
			"type":"VEC3"
		},
		{
			"bufferView":16,
			"componentType":5126,
			"count":2,
			"type":"VEC4"
		},
		{
			"bufferView":17,
			"componentType":5126,
			"count":2,
			"type":"VEC3"
		},
		{
			"bufferView":18,
			"componentType":5126,
			"count":2,
			"type":"VEC3"
		},
		{
			"bufferView":19,
			"componentType":5126,
			"count":41,
			"type":"VEC4"
		},
		{
			"bufferView":20,
			"componentType":5126,
			"count":2,
			"type":"VEC3"
		},
		{
			"bufferView":21,
			"componentType":5126,
			"count":2,
			"type":"VEC3"
		},
		{
			"bufferView":22,
			"componentType":5126,
			"count":41,
			"type":"VEC4"
		},
		{
			"bufferView":23,
			"componentType":5126,
			"count":2,
			"type":"VEC3"
		}
	],
	"bufferViews":[
		{
			"buffer":0,
			"byteLength":2352,
			"byteOffset":0,
			"target":34962
		},
		{
			"buffer":0,
			"byteLength":2352,
			"byteOffset":2352,
			"target":34962
		},
		{
			"buffer":0,
			"byteLength":1568,
			"byteOffset":4704,
			"target":34962
		},
		{
			"buffer":0,
			"byteLength":784,
			"byteOffset":6272,
			"target":34962
		},
		{
			"buffer":0,
			"byteLength":3136,
			"byteOffset":7056,
			"target":34962
		},
		{
			"buffer":0,
			"byteLength":708,
			"byteOffset":10192,
			"target":34963
		},
		{
			"buffer":0,
			"byteLength":320,
			"byteOffset":10900
		},
		{
			"buffer":0,
			"byteLength":8,
			"byteOffset":11220
		},
		{
			"buffer":0,
			"byteLength":24,
			"byteOffset":11228
		},
		{
			"buffer":0,
			"byteLength":32,
			"byteOffset":11252
		},
		{
			"buffer":0,
			"byteLength":24,
			"byteOffset":11284
		},
		{
			"buffer":0,
			"byteLength":24,
			"byteOffset":11308
		},
		{
			"buffer":0,
			"byteLength":164,
			"byteOffset":11332
		},
		{
			"buffer":0,
			"byteLength":656,
			"byteOffset":11496
		},
		{
			"buffer":0,
			"byteLength":24,
			"byteOffset":12152
		},
		{
			"buffer":0,
			"byteLength":24,
			"byteOffset":12176
		},
		{
			"buffer":0,
			"byteLength":32,
			"byteOffset":12200
		},
		{
			"buffer":0,
			"byteLength":24,
			"byteOffset":12232
		},
		{
			"buffer":0,
			"byteLength":24,
			"byteOffset":12256
		},
		{
			"buffer":0,
			"byteLength":656,
			"byteOffset":12280
		},
		{
			"buffer":0,
			"byteLength":24,
			"byteOffset":12936
		},
		{
			"buffer":0,
			"byteLength":24,
			"byteOffset":12960
		},
		{
			"buffer":0,
			"byteLength":656,
			"byteOffset":12984
		},
		{
			"buffer":0,
			"byteLength":24,
			"byteOffset":13640
		}
	],
	"buffers":[
		{
			"byteLength":13664,
			"uri":"fish.bin"
		}
	]
}
